<?xml version="1.0" encoding="utf-8"?>
<!-- Generator: Adobe Illustrator 23.0.3, SVG Export Plug-In . SVG Version: 6.00 Build 0)  -->
<svg version="1.1" id="Layer_1" xmlns="http://www.w3.org/2000/svg" xmlns:xlink="http://www.w3.org/1999/xlink" x="0px" y="0px"
	 viewBox="0 0 245.3 154.1" style="enable-background:new 0 0 245.3 154.1;" xml:space="preserve">
<style type="text/css">
	.st0{fill:#BD9241;}
	.st1{fill:url(#SVGID_1_);}
	.st2{fill:url(#SVGID_2_);}
	.st3{fill:#FFFFFF;}
	.st4{fill:url(#SVGID_3_);}
</style>
<path class="st0" d="M100.3,91.7c-10,0-15.3,7-15.3,13.9c0,11.9,13.5,17.6,27.5,18.1c-0.3-3-0.9-5.8-1.9-8.2
	c-9.3-0.8-17.5-4.1-17.5-9.9c0-2.8,1.9-5.8,7.2-5.8c7.3,0,18.1,8.8,18.1,27.8h8.1C126.5,105.1,113.2,91.7,100.3,91.7L100.3,91.7z"/>
<linearGradient id="SVGID_1_" gradientUnits="userSpaceOnUse" x1="115.4003" y1="49.1961" x2="123.0703" y2="29.4961" gradientTransform="matrix(1 0 0 -1 0 153.8898)">
	<stop  offset="0" style="stop-color:#BD9241"/>
	<stop  offset="0.77" style="stop-color:#A7772E"/>
	<stop  offset="0.84" style="stop-color:#A5752D"/>
</linearGradient>
<path class="st1" d="M117.9,100.7c-2.3,1.5-4.5,3.1-6.5,5c4,4.5,7,11.8,7,21.9h8.1C126.5,116,123,106.9,117.9,100.7L117.9,100.7z"/>
<linearGradient id="SVGID_2_" gradientUnits="userSpaceOnUse" x1="118.4287" y1="110.0196" x2="188.8387" y2="110.0196">
	<stop  offset="0" style="stop-color:#D9B35E"/>
	<stop  offset="1" style="stop-color:#FFFFFF"/>
</linearGradient>
<path class="st2" d="M182.3,108.9c-6.2,6.6-14.6,10.3-23.6,10.6c-2.5,0.1-4.9-0.1-7.3-0.6c5.1-3,8.5-7.4,8.5-13.3
	c0-6.9-5.3-13.9-15.3-13.9c-12.9,0-26.2,13.4-26.2,35.9h8.1c0-18.9,10.8-27.8,18.1-27.8c5.3,0,7.2,3,7.2,5.8c0,4.5-5.1,7.5-11.7,9
	c-1.9,0.4-3.8,0.7-5.9,0.9c-0.6,1.5-1.1,3.2-1.4,5c1.4,1,3,2,4.5,2.8c4.5,2.4,9.4,4,14.4,4.7c2.4,0.3,4.8,0.5,7.2,0.4
	c11.4-0.3,22-5.1,29.8-13.4L182.3,108.9L182.3,108.9z"/>
<g>
	<path class="st3" d="M146.9,83.7c0,2.2,0.2,4.1,0.6,5.8c8,1,12.8,6.1,14.3,12c1.1,0.1,2.2,0.2,3.4,0.2h8.1V88.2h-5.7
		c-1.7,0-3-0.3-3.7-1c-0.8-0.7-1.1-1.8-1.1-3.3V63h10.4V49.8h-10.4V29h-15.9v20.8h-6.3V63h6.3V83.7L146.9,83.7z"/>
	<path class="st3" d="M112.5,63v29.9c3.4,2.1,6.5,5.1,9.1,8.8h1.9c1.5-2.1,3.1-4,4.9-5.7V63h8.5V49.8h-8.6v-0.5
		c0-2.7,0.6-4.6,1.9-5.7c1.2-1.1,3.4-1.5,6.4-1.3V28.9c-0.6-0.1-1.4-0.1-2.6-0.1c-7.1,0-12.4,1.7-16.1,5c-3.7,3.3-5.5,8.2-5.5,14.5
		v1.5h0.1L112.5,63L112.5,63L112.5,63z"/>
	<path class="st3" d="M65.4,57.2c-1.5-2.4-3.6-4.4-6.4-5.9s-6-2.2-9.6-2.2c-4.3,0-8.2,1.1-11.6,3.3c-3.5,2.2-6.2,5.3-8.2,9.3
		c-2,4-3,8.7-3,14s1,10,3,14.1s4.8,7.2,8.2,9.4c3.5,2.2,7.3,3.3,11.6,3.3c3.7,0,6.8-0.8,9.6-2.3c2.7-1.5,4.9-3.5,6.4-5.9v7.3
		c0,4.2-1,7.2-2.9,9.1s-4.6,2.8-7.9,2.8c-2.7,0-5-0.6-6.9-1.7s-3-2.7-3.5-4.7H28.5c0.7,6.2,3.4,11.1,8.2,14.7
		c4.8,3.6,11,5.4,18.7,5.4c5.8,0,10.6-1.1,14.5-3.4s6.8-5.4,8.7-9.3s2.8-8.2,2.8-13V49.8H65.4L65.4,57.2L65.4,57.2z M62.1,85.1
		c-2.2,2.3-4.9,3.4-8,3.4s-5.8-1.2-8-3.5c-2.2-2.3-3.3-5.5-3.3-9.4s1.1-7.1,3.3-9.3c2.2-2.3,4.9-3.4,8-3.4s5.8,1.2,8,3.4
		c2.2,2.3,3.3,5.4,3.3,9.4S64.3,82.9,62.1,85.1L62.1,85.1z"/>
	<path class="st3" d="M100.3,89.3c2.9,0,5.7,0.6,8.4,1.7V49.8H92.8v40.9C94.9,89.8,97.4,89.3,100.3,89.3L100.3,89.3z"/>
	<path class="st3" d="M221.4,78c-1.8-2.1-3.9-3.7-6.4-4.7c-2.4-1-5.6-1.9-9.4-2.9c-3.3-0.7-5.8-1.5-7.4-2.2
		c-1.6-0.8-2.4-1.9-2.4-3.3c0-1.2,0.5-2.2,1.5-2.9s2.4-1.1,4.3-1.1c2.2,0,3.9,0.5,5.3,1.6c1.3,1.1,2.1,2.5,2.4,4.3h14.7
		c-0.6-5.3-2.7-9.6-6.5-12.8c-3.8-3.2-8.9-4.8-15.4-4.8c-4.4,0-8.2,0.7-11.4,2.1s-5.6,3.4-7.3,5.8s-2.5,5.2-2.5,8.1
		c0,3.5,0.9,6.3,2.7,8.4c1.8,2.1,3.9,3.6,6.4,4.6c2.5,1,5.6,1.9,9.3,2.7c3.5,0.9,6,1.7,7.5,2.4s2.3,1.8,2.3,3.3c0,1.2-0.5,2.3-1.6,3
		c-1.1,0.8-2.6,1.2-4.6,1.2c-2.2,0-4-0.6-5.5-1.7c-1.5-1.1-2.3-2.6-2.5-4.4h-15.7c0.3,3.3,1.4,6.4,3.4,9.1c2,2.7,4.8,4.8,8.4,6.4
		c3.5,1.6,7.6,2.3,12.1,2.3c4.2,0,7.9-0.7,11.1-2.1c3.2-1.4,5.6-3.2,7.4-5.6c1.7-2.4,2.6-5.1,2.6-8.1C224.2,83,223.2,80.2,221.4,78
		L221.4,78z"/>
</g>
<linearGradient id="SVGID_3_" gradientUnits="userSpaceOnUse" x1="29.2526" y1="34.1866" x2="108.6722" y2="34.1866">
	<stop  offset="0" style="stop-color:#D9B35E"/>
	<stop  offset="1" style="stop-color:#FFFFFF"/>
</linearGradient>
<path class="st4" d="M41,23c-0.1,0.7-0.3,1.1-0.6,1.4c-0.3,0.3-0.8,0.4-1.5,0.4h-0.4c-0.4,0-0.6,0-0.5,0c-0.5,0-1,0.1-1.6,0.4
	c-0.6,0.3-1,0.7-1,1.1l-0.3,1.8c0.3,0.1,0.6,0.1,1.1,0.1c0.1,0,0.2,0,0.4,0H37c1.2,0,1.7,0.4,1.7,1.3c0,0.1,0,0.3-0.1,0.5
	c-0.2,1-0.6,1.6-1.4,1.8c-0.9,0-1.7,0-2.6,0.1L33,42.2c-0.2,0.9-0.9,1.3-2,1.3c-0.4,0-0.8-0.1-1.1-0.3c-0.4-0.2-0.6-0.5-0.5-0.9
	l2.5-16.2c0.1-0.6,0.4-1.2,0.9-1.9c1.5-2,3.5-3.1,6.2-3.1c0.7,0,1.2,0,1.5,0.1c0.5,0.2,0.7,0.5,0.7,1.1C41.1,22.6,41.1,22.8,41,23z
	 M49.8,38.5c-0.1,0.8-0.6,1.6-1.3,2.5c-0.7,0.8-1.4,1.4-2.2,1.7c-1.1,0.5-2,0.8-2.9,0.8c-1.4,0-2.5-0.4-3.4-1.3
	c-0.9-0.9-1.3-2-1.3-3.4c0-1.9,0.7-3.5,2.2-4.8c1.4-1.2,3.1-1.7,5-1.7c0.4,0,0.7,0,1.1,0.1c0.2-0.7,0.3-1.3,0.3-1.9
	c0-1.2-0.5-1.9-1.6-1.9c-0.4,0-0.9,0.1-1.3,0.4c-0.4,0.3-0.7,0.6-0.8,1.1c-0.1,0.2-0.1,0.5-0.3,0.9c-0.4,0.6-1,0.8-1.9,0.8
	c-1.1,0-1.6-0.4-1.6-1.2c0-0.7,0.3-1.5,0.8-2.3c0.4-0.7,1-1.3,1.6-1.8c1.3-1,2.6-1.6,4.1-1.6c0.4,0,0.8,0,1.2,0.1
	c0.9,0.2,1.8,0.7,2.5,1.7c0.7,0.9,1.1,1.9,1.1,2.8c0,0.1,0,0.3-0.1,0.4L49.8,38.5z M46.1,38.3l0.4-2.3h-2.3c-0.3,0-0.7,0.2-1.1,0.7
	c-0.4,0.4-0.6,0.8-0.7,1.2c-0.1,0.5,0,0.9,0.4,1.3c0.3,0.4,0.7,0.6,1.2,0.6c0.4,0,0.8-0.2,1.3-0.5S46.1,38.7,46.1,38.3z M60,42
	c-1.3,1-2.6,1.5-4,1.5c-1.5,0-2.8-0.6-3.7-1.8c-0.7-0.9-1.1-1.8-1.1-2.8c0-0.2,0-0.3,0-0.4l1.4-8.6c0.1-0.8,0.6-1.6,1.3-2.5
	c0.7-0.8,1.4-1.3,2.2-1.7c1.1-0.5,2-0.8,2.9-0.8c1.3,0,2.5,0.4,3.4,1.3c0.9,0.9,1.4,2,1.4,3.3c0,0.3,0,0.5-0.1,0.8
	c-0.2,1-0.8,1.5-2.1,1.5c-1,0-1.5-0.3-1.6-0.8v-0.9c0-0.4-0.2-0.8-0.5-1.1c-0.3-0.3-0.7-0.4-1.1-0.4c-0.4,0-0.8,0.2-1.3,0.5
	c-0.5,0.3-0.8,0.7-0.9,1l-1.3,8.3c-0.1,0.3,0.1,0.7,0.4,1c0.3,0.3,0.7,0.5,1.2,0.5c1,0,1.7-0.5,2.1-1.5c0-0.2,0.1-0.5,0.3-0.9
	c0.3-0.6,1-0.8,1.9-0.8c1.1,0,1.6,0.4,1.6,1.2c0,0.8-0.3,1.6-0.8,2.4C61.2,40.9,60.7,41.5,60,42z M71.4,41.6c-0.1,0.9-0.5,1.4-1,1.6
	c-0.3,0.1-0.9,0.2-1.7,0.2c-0.9,0-1.5,0-1.9-0.1c-1-0.2-1.8-0.8-2.5-1.7c-0.7-0.9-1.1-1.8-1.1-2.8c0-0.1,0-0.3,0.1-0.4l2.5-16.2
	c0.1-0.3,0.4-0.6,0.9-0.9c0.4-0.2,0.8-0.3,1.1-0.3c1.1,0,1.6,0.4,1.6,1.2L69,24.8c0.3,0.1,0.6,0.1,1.1,0.1c0.1,0,0.2,0,0.3,0h0.3
	c0.6,0,1,0.1,1.2,0.2c0.3,0.2,0.5,0.6,0.5,1.1c0,0.1,0,0.3-0.1,0.5c-0.2,1-0.6,1.6-1.4,1.8c-0.9,0-1.7,0.1-2.6,0.1l-1.6,9.6
	c0.1,0.6,0.2,1.1,0.6,1.3c0.3,0.2,0.8,0.4,1.5,0.4h0.7c1.2,0,1.8,0.4,1.8,1.3C71.4,41.2,71.4,41.4,71.4,41.6z M84.3,38.5
	c-0.1,0.8-0.6,1.6-1.3,2.5c-0.7,0.8-1.4,1.4-2.2,1.7c-1.1,0.5-2,0.8-2.9,0.8c-1.5,0-2.8-0.6-3.7-1.8c-0.7-0.9-1.1-1.8-1.1-2.8
	c0-0.2,0-0.3,0-0.4l1.4-8.6c0.1-0.8,0.6-1.6,1.3-2.5c0.7-0.8,1.4-1.3,2.2-1.7c1.1-0.5,2-0.8,2.9-0.8c0.4,0,0.8,0,1.2,0.1
	c0.9,0.2,1.8,0.7,2.5,1.7c0.7,0.9,1.1,1.9,1.1,2.8c0,0.1,0,0.3-0.1,0.4L84.3,38.5z M80.6,38.3l1.3-8.3c0.1-0.3-0.1-0.7-0.5-1
	c-0.4-0.3-0.8-0.5-1.1-0.5c-0.4,0-0.8,0.2-1.3,0.5c-0.5,0.3-0.8,0.7-0.8,1l-1.3,8.2c-0.1,0.4,0.1,0.7,0.5,1c0.4,0.3,0.8,0.5,1.1,0.5
	c0.4,0,0.8-0.2,1.3-0.5C80.3,39,80.6,38.7,80.6,38.3z M96.3,26.7c-0.1,0.7-0.3,1.2-0.6,1.4c-0.3,0.3-0.8,0.4-1.4,0.4h-0.5
	c-0.4,0-0.6,0-0.5,0c-0.5,0-1,0.1-1.6,0.4c-0.6,0.3-0.9,0.7-1,1.1l-2,12.3c-0.1,0.3-0.3,0.6-0.8,0.8c-0.4,0.2-0.8,0.3-1.2,0.3
	c-0.4,0-0.7-0.1-1.1-0.3c-0.4-0.2-0.6-0.5-0.6-0.9l2-12.5c0.1-0.6,0.4-1.2,0.9-1.9c1.5-2.1,3.5-3.1,6.2-3.1c0.7,0,1.2,0,1.5,0.1
	c0.5,0.2,0.7,0.5,0.7,1.1C96.3,26.3,96.3,26.5,96.3,26.7z M106.1,42.2c-0.1,0.8-0.6,1.7-1.3,2.5c-0.6,0.7-1.4,1.3-2.2,1.7
	c-1.1,0.5-2,0.8-2.9,0.8c-1.3,0-2.5-0.4-3.4-1.3c-0.9-0.9-1.4-2-1.4-3.3c0-0.3,0-0.5,0.1-0.8c0.2-1,0.8-1.5,2.1-1.5
	c0.3,0,0.6,0.1,1,0.2c0.4,0.2,0.6,0.4,0.6,0.6c0,0.2,0,0.5,0,0.9c0,0.4,0.2,0.7,0.5,1.1c0.3,0.3,0.7,0.5,1.1,0.5
	c0.4,0,0.8-0.2,1.3-0.5c0.5-0.3,0.8-0.7,0.8-1l0.4-2.2c-0.7,0-1.7-0.1-3.1-0.2c-0.9-0.2-1.8-0.7-2.5-1.6c-0.7-0.9-1.1-1.9-1.1-2.8
	c0-0.2,0-0.3,0-0.4l1.4-8.7c0.1-0.3,0.4-0.6,0.9-0.9c0.4-0.2,0.8-0.3,1.1-0.3c0.3,0,0.7,0.1,1.1,0.3c0.4,0.2,0.6,0.5,0.6,0.8
	l-1.3,8.6c0,0.2,0.1,0.5,0.4,0.9c0.3,0.4,0.6,0.6,0.8,0.6h2.3l1.6-10c0.1-0.3,0.3-0.6,0.8-0.9c0.4-0.2,0.8-0.3,1.2-0.3
	c0.3,0,0.7,0.1,1.1,0.3c0.5,0.2,0.6,0.5,0.6,0.8L106.1,42.2z"/>
</svg>
